<svg width="80" height="80" viewBox="0 0 80 80" fill="none" xmlns="http://www.w3.org/2000/svg">
<path d="M64.3056 74.2069C63.9295 74.2069 63.5574 74.0756 63.2588 73.8225L47.0441 60.0766H11.1208C4.98873 60.0764 0 55.0599 0 48.8937V16.9758C0 10.8096 4.98873 5.79315 11.1208 5.79315H68.8792C75.0113 5.79315 80 10.8098 80 16.9758V48.8937C80 55.0599 75.0113 60.0764 68.8792 60.0764H65.9288V72.5742C65.9288 73.2095 65.5626 73.7869 64.9897 74.0545C64.7711 74.1567 64.5376 74.2069 64.3056 74.2069ZM11.1208 9.05846C6.77926 9.05846 3.24718 12.6101 3.24718 16.9758V48.8937C3.24718 53.2593 6.77926 56.8111 11.1208 56.8111H47.6371C48.0201 56.8111 48.3907 56.9473 48.6838 57.1954L62.6816 69.0624V58.4438C62.6816 57.542 63.4086 56.8111 64.3053 56.8111H68.8792C73.2207 56.8111 76.7528 53.2593 76.7528 48.8937V16.9758C76.7528 12.6101 73.2207 9.05846 68.8792 9.05846H11.1208Z" fill="#D8A865"/>
<path d="M66.1496 24.0766H13.8498C12.9532 24.0766 12.2263 23.3455 12.2263 22.444C12.2263 21.5422 12.9532 20.8113 13.8498 20.8113H66.1494C67.0461 20.8113 67.7729 21.5422 67.7729 22.444C67.7729 23.3455 67.0462 24.0766 66.1496 24.0766Z" fill="#D8A865"/>
<path d="M66.1496 34.5312H13.8498C12.9532 34.5312 12.2263 33.8001 12.2263 32.8985C12.2263 31.9968 12.9532 31.2659 13.8498 31.2659H66.1494C67.0461 31.2659 67.7729 31.9968 67.7729 32.8985C67.7729 33.8001 67.0462 34.5312 66.1496 34.5312Z" fill="#D8A865"/>
<path d="M66.1496 44.9859H13.8498C12.9532 44.9859 12.2263 44.2547 12.2263 43.3532C12.2263 42.4515 12.9532 41.7205 13.8498 41.7205H66.1494C67.0461 41.7205 67.7729 42.4513 67.7729 43.3532C67.7729 44.2547 67.0462 44.9859 66.1496 44.9859Z" fill="#D8A865"/>
</svg>
