<svg width="80" height="80" viewBox="0 0 80 80" fill="none" xmlns="http://www.w3.org/2000/svg">
<g clip-path="url(#clip0)">
<path d="M27.4763 17.1692C28.341 17.1692 29.0419 16.4691 29.0419 15.6067C29.0419 14.7424 28.341 14.0442 27.4763 14.0442C26.6122 14.0442 25.9114 14.7424 25.9114 15.6067C25.9114 16.4691 26.6122 17.1692 27.4763 17.1692Z" fill="black"/>
<path d="M69.1137 28.3496C70.2598 26.3446 69.8152 23.8068 68.0564 22.3138L62.7543 17.8204C62.4607 17.5714 62.2614 17.2211 62.1929 16.8347L60.9924 10.0452C60.5912 7.75635 58.6245 6.09619 56.3159 6.09619H49.3951C49.0196 6.09619 48.6526 5.96069 48.3744 5.7251L43.0723 1.13586C43.068 1.1322 43.0631 1.12854 43.0588 1.12427C41.2866 -0.374756 38.7138 -0.374756 36.9421 1.12427C36.9373 1.12854 36.933 1.1322 36.9287 1.13586L31.6382 5.71472C31.3483 5.96069 30.982 6.09619 30.6071 6.09619H23.6844C21.3765 6.09619 19.4097 7.75696 19.0086 10.0427L17.8056 16.8384C17.7384 17.2229 17.5402 17.5714 17.2467 17.8198L11.9434 22.3145C10.1852 23.8068 9.74119 26.3446 10.8872 28.349L14.3486 34.4055C14.5424 34.7449 14.6122 35.1434 14.5449 35.5286L13.3426 42.4145C12.9445 44.6991 14.2263 46.9342 16.3893 47.7283L22.8937 50.1208C23.0234 50.1685 23.1457 50.2325 23.2576 50.3113L11.2003 71.4136C10.513 72.6166 11.6241 74.0552 12.9653 73.6969L20.0072 71.814L21.8938 78.8415C22.254 80.1837 24.0703 80.4285 24.7657 79.2114L37.2088 57.4359L39.4525 56.6107C39.8054 56.4807 40.195 56.4813 40.5472 56.6101L42.9604 57.4976L56.3116 79.2535C57.0284 80.4205 58.8031 80.1691 59.159 78.8415L61.0462 71.814L68.0876 73.6969C69.4476 74.0619 70.5662 72.5745 69.828 71.3715L56.8565 50.2386C56.9366 50.1916 57.0204 50.152 57.1079 50.1202L63.6098 47.7283C65.7771 46.9336 67.0589 44.6979 66.6584 42.4139L65.4561 35.528C65.3888 35.1434 65.4585 34.7443 65.6524 34.4049L69.1137 28.3496ZM23.9327 74.3622L22.6265 69.4958C22.4026 68.6621 21.544 68.1677 20.7087 68.3911L15.7784 69.7095L25.1503 53.3057L27.2027 56.8957C28.3041 58.8251 30.5576 59.7186 32.654 59.0991L23.9327 74.3622ZM65.1087 69.6655L60.3442 68.3911C59.5082 68.1677 58.6502 68.6627 58.4264 69.4958L57.0779 74.5196L47.6656 59.1827C48.0056 59.2578 48.3475 59.295 48.6869 59.295C50.3454 59.2944 51.9299 58.4167 52.7977 56.8964L54.9546 53.1226L65.1087 69.6655ZM62.9328 32.8571C62.3788 33.8263 62.1794 34.9658 62.3714 36.0651L63.5737 42.9517C63.7138 43.7469 63.2741 44.5227 62.5286 44.7961L56.0267 47.1875C55.0525 47.5452 54.2232 48.2202 53.6643 49.0961C53.6 49.1791 53.5456 49.2682 53.5004 49.3616L50.0782 55.3491C49.6855 56.0364 48.8679 56.3391 48.1347 56.0706C47.9292 55.9949 41.7948 53.739 41.6284 53.678C40.579 53.2935 39.4226 53.2928 38.3713 53.6786C38.2453 53.7238 35.4708 54.7449 31.8675 56.0706C31.1331 56.3403 30.3154 56.0364 29.9228 55.3485L26.7024 49.715C26.6284 49.4208 26.47 49.1479 26.2364 48.9362C25.6805 48.1372 24.8904 47.5238 23.9755 47.1881L17.4717 44.7955C16.7281 44.5227 16.2884 43.7463 16.4272 42.9504L17.6295 36.0651C17.8222 34.9658 17.6228 33.8263 17.0687 32.8571L13.6074 26.8005C13.2062 26.1005 13.3603 25.2148 13.9713 24.696L19.274 20.202C20.124 19.4812 20.6983 18.4772 20.8903 17.3785L22.0926 10.5841C22.2314 9.79431 22.901 9.22058 23.6851 9.22058H30.6077C31.7244 9.22058 32.8105 8.82141 33.6777 8.08533L38.9725 3.50342C39.5693 3.00293 40.4322 3.00293 41.0291 3.50342L46.3355 8.0957C47.1904 8.82141 48.2771 9.22058 49.3951 9.22058H56.3165C57.1005 9.22058 57.7702 9.79431 57.909 10.5859L59.1101 17.3779C59.3045 18.4796 59.8788 19.4824 60.7276 20.202L66.0291 24.6948C66.6413 25.2142 66.7948 26.0999 66.3942 26.8005L62.9328 32.8571Z" fill="#D8A865"/>
<path d="M40.0006 9.33533C37.3055 9.33533 34.6856 9.85352 32.2137 10.8759C31.4151 11.2061 31.0359 12.1204 31.3668 12.9175C31.6982 13.7146 32.6143 14.0924 33.4124 13.7628C35.502 12.8979 37.7189 12.4597 40.0006 12.4597C49.496 12.4597 57.2211 20.1697 57.2211 29.6466C57.2211 39.1235 49.496 46.8335 40.0006 46.8335C30.5051 46.8335 22.78 39.1235 22.78 29.6466C22.78 26.7072 23.5365 23.8055 24.9675 21.2561C25.3901 20.5035 25.121 19.5508 24.367 19.129C23.6124 18.7073 22.6583 18.9758 22.2358 19.7284C20.5436 22.7435 19.6489 26.1731 19.6489 29.6472C19.6489 40.8472 28.7787 49.9591 40.0006 49.9591C51.2224 49.9591 60.3522 40.8472 60.3522 29.6472C60.3522 18.4467 51.2224 9.33533 40.0006 9.33533Z" fill="#D8A865"/>
<path d="M26.0766 14.8335C24.1111 16.6738 22.5556 18.8407 21.4536 21.2742C21.0975 22.0604 21.4478 22.9861 22.2355 23.3415C23.0237 23.6965 23.9508 23.3465 24.3069 22.5612C25.238 20.5035 26.5544 18.6702 28.2184 17.1121C35.1436 10.6282 46.0629 10.9762 52.5595 17.8879C59.0561 24.7995 58.7075 35.6975 51.7823 42.1814C44.8571 48.6653 33.9378 48.3173 27.4412 41.4057C25.4262 39.2619 23.9888 36.6291 23.2847 33.7926C23.077 32.9552 22.2277 32.4441 21.3886 32.6514C20.5491 32.8591 20.0374 33.7064 20.2451 34.5438C21.078 37.8983 22.7765 41.0105 25.1581 43.5442C32.8358 51.7125 45.7407 52.1237 53.925 44.4609C62.1092 36.7982 62.5213 23.9185 54.8435 15.7502C47.1653 7.58151 34.2609 7.1707 26.0766 14.8335Z" fill="#D8A865"/>
<path d="M33.8521 31.6626L32.936 36.9885C32.8351 37.5745 33.0766 38.1671 33.5591 38.5168C34.0355 38.8629 34.674 38.9154 35.2073 38.6359L40.0006 36.1212L44.7938 38.6359C45.321 38.9124 45.9601 38.8666 46.4426 38.5168C46.9245 38.1671 47.166 37.5751 47.0651 36.9885L46.149 31.6626L50.0262 27.8906C50.4531 27.4756 50.6066 26.8549 50.4225 26.2891C50.2378 25.7233 49.748 25.3113 49.1585 25.2252L43.8001 24.4482L41.4047 19.6027C41.1405 19.0692 40.5962 18.7311 40.0006 18.7311C39.4043 18.7311 38.86 19.0692 38.5964 19.6027L36.201 24.4482L30.8427 25.2252C30.2525 25.3113 29.7627 25.7233 29.5786 26.2891C29.3945 26.8549 29.548 27.4756 29.9749 27.8906L33.8521 31.6626ZM37.4657 27.4225C37.9757 27.3486 38.4166 27.0288 38.6448 26.568L40.0006 23.8251L41.357 26.568C41.5845 27.0288 42.0254 27.3486 42.5354 27.4225L45.5693 27.8625L43.3738 29.9982C43.0051 30.3571 42.8369 30.874 42.9237 31.3812L43.4423 34.3964L40.7289 32.973C40.5008 32.8534 40.2507 32.7936 40.0006 32.7936C39.7504 32.7936 39.5003 32.8534 39.2722 32.973L36.5588 34.3964L37.0774 31.3812C37.1648 30.8746 36.996 30.3571 36.6273 29.9982L34.4318 27.8625L37.4657 27.4225Z" fill="#D8A865"/>
</g>
<defs>
<clipPath id="clip0">
<rect width="80" height="79.9999" fill="white"/>
</clipPath>
</defs>
</svg>
