<svg width="32" height="32" viewBox="0 0 32 32" fill="none" xmlns="http://www.w3.org/2000/svg">
<path fill-rule="evenodd" clip-rule="evenodd" d="M32 4C32 1.79086 30.2091 0 28 0H4C1.79086 0 0 1.79086 0 4V28C0 30.2091 1.79086 32 4 32H28C30.2091 32 32 30.2091 32 28V4ZM21.9536 15.6464L18.7716 12.4645C18.5763 12.2692 18.2597 12.2692 18.0645 12.4645C17.8692 12.6597 17.8692 12.9763 18.0645 13.1716C18.9237 14.0308 18.3152 15.5 17.1 15.5H10.9C10.6239 15.5 10.4 15.7239 10.4 16C10.4 16.2761 10.6239 16.5 10.9 16.5H17.1C18.3152 16.5 18.9237 17.9692 18.0645 18.8284C17.8692 19.0237 17.8692 19.3403 18.0645 19.5355C18.2597 19.7308 18.5763 19.7308 18.7716 19.5355L21.9536 16.3536C22.1488 16.1583 22.1488 15.8417 21.9536 15.6464Z" fill="#D8A865"/>
</svg>
